<?xml version="1.0" encoding="UTF-8"?>
<svg xmlns="http://www.w3.org/2000/svg" xmlns:xlink="http://www.w3.org/1999/xlink" viewBox="0 0 48 48" width="48px" height="48px">
<g id="surface152288559">
<path style=" stroke:none;fill-rule:nonzero;fill:rgb(0%,0%,0%);fill-opacity:0.25098;" d="M 20.25 6.75 C 12.804688 6.75 6.75 12.804688 6.75 20.25 C 6.75 27.695312 12.804688 33.75 20.25 33.75 C 23.347656 33.75 26.195312 32.691406 28.476562 30.929688 L 38.285156 40.742188 C 38.964844 41.417969 40.0625 41.417969 40.742188 40.742188 C 41.417969 40.0625 41.417969 38.964844 40.742188 38.285156 L 30.929688 28.476562 C 32.691406 26.195312 33.75 23.347656 33.75 20.25 C 33.75 12.804688 27.695312 6.75 20.25 6.75 Z M 20.25 9.75 C 26.039062 9.75 30.75 14.460938 30.75 20.25 C 30.75 26.039062 26.039062 30.75 20.25 30.75 C 14.460938 30.75 9.75 26.039062 9.75 20.25 C 9.75 14.460938 14.460938 9.75 20.25 9.75 Z M 20.25 9.75 "/>
</g>
</svg>
